<?xml version="1.0" encoding="UTF-8" standalone="no"?>
<svg
   xmlns:dc="http://purl.org/dc/elements/1.1/"
   xmlns:cc="http://creativecommons.org/ns#"
   xmlns:rdf="http://www.w3.org/1999/02/22-rdf-syntax-ns#"
   xmlns:svg="http://www.w3.org/2000/svg"
   xmlns="http://www.w3.org/2000/svg"
   xmlns:sodipodi="http://sodipodi.sourceforge.net/DTD/sodipodi-0.dtd"
   xmlns:inkscape="http://www.inkscape.org/namespaces/inkscape"
   viewBox="0 0 252.90748 252.88945"
   height="252.88945"
   width="252.90749"
   xml:space="preserve"
   id="svg10"
   version="1.1"
   sodipodi:docname="rees-solutions-logo-menu-white.svg"
   inkscape:version="0.92.4 (5da689c313, 2019-01-14)"><sodipodi:namedview
     pagecolor="#ffffff"
     bordercolor="#666666"
     borderopacity="1"
     objecttolerance="10"
     gridtolerance="10"
     guidetolerance="10"
     inkscape:pageopacity="0"
     inkscape:pageshadow="2"
     inkscape:window-width="1920"
     inkscape:window-height="923"
     id="namedview82"
     showgrid="false"
     inkscape:pagecheckerboard="true"
     inkscape:zoom="1.9316547"
     inkscape:cx="128.87148"
     inkscape:cy="74.245653"
     inkscape:window-x="0"
     inkscape:window-y="0"
     inkscape:window-maximized="1"
     inkscape:current-layer="svg10"
     fit-margin-top="3"
     fit-margin-right="3"
     fit-margin-left="3"
     fit-margin-bottom="3" /><metadata
     id="metadata16"><rdf:RDF><cc:Work
         rdf:about=""><dc:format>image/svg+xml</dc:format><dc:type
           rdf:resource="http://purl.org/dc/dcmitype/StillImage" /><dc:title /></cc:Work></rdf:RDF></metadata><defs
     id="defs14" /><g
     transform="matrix(1.3333333,0,0,-1.3333333,-73.277498,362.49862)"
     id="g18"><g
       transform="scale(0.1)"
       id="g20"><g
         transform="matrix(3031.2,0,0,2772,1.73228,1.73218)"
         id="g22"><g
           id="g74"><path
             style="fill:#47c2f2;stroke-width:0.00248387"
             d="m 0.48061734,0.32855265 c 8.6235e-4,0.0111557 0.001568,0.0246216 0.001568,0.0299243 v 0.009641 l 0.0279097,0.001433 c 0.10142789,0.005206 0.19205794,0.0846943 0.21981033,0.19278698 0.008531,0.0332288 0.008741,0.0347719 0.005237,0.038603 -0.001771,0.001936 -0.01443,0.004861 -0.028886,0.006674 -0.0396282,0.00497 -0.0358362,0.001715 -0.0361162,0.030997 -6.932e-4,0.0724975 -0.0351707,0.13449011 -0.0941309,0.16925321 -0.0104513,0.006162 -0.0193802,0.0115149 -0.0198421,0.011895 -0.001235,0.001017 0.0141366,0.0512434 0.0165656,0.0541263 0.003189,0.003784 0.0458273,-0.0209989 0.0654217,-0.0380258 0.0242069,-0.021035 0.0460416,-0.0501209 0.0597957,-0.0796535 0.011975,-0.0257125 0.0217646,-0.0537764 0.0217646,-0.0623928 0,-0.0101468 0.004782,-0.010476 0.0377541,-0.002599 0.0174987,0.004181 0.0322569,0.007119 0.0327958,0.006529 5.3896e-4,-5.8935e-4 0.002012,-0.0159777 0.003273,-0.0341962 0.004359,-0.0629782 -0.004404,-0.11472141 -0.0286306,-0.16905499 -0.0192891,-0.0432595 -0.0354511,-0.0671439 -0.0665923,-0.0984109 -0.052396,-0.0526076 -0.11782915,-0.0825183 -0.18860012,-0.0862126 l -0.0306653,-0.001601 z"
             id="path211"
             inkscape:connector-curvature="0" /><path
             style="fill:#0891c9;stroke-width:0.00248387"
             d="M 0.36460808,0.33992158 C 0.30947,0.36744392 0.24899542,0.43255504 0.2231661,0.49220779 c -0.018395,0.0424833 -0.0277778,0.0852201 -0.0299384,0.13636364 -0.001688,0.0399629 0.003861,0.0766985 0.0185447,0.12276638 0.0108687,0.0340985 0.0302511,0.0735167 0.0359058,0.073022 0.00525,-4.5926e-4 0.0396089,-0.0276847 0.0396759,-0.0314387 3.135e-5,-0.001751 -0.005221,-0.0140233 -0.0116728,-0.0272727 -0.0238406,-0.0489629 -0.0321923,-0.091735 -0.0286652,-0.14680403 0.002438,-0.0380673 0.00818,-0.0630799 0.0213187,-0.0928703 0.0183858,-0.0416872 0.0540554,-0.0922614 0.0649999,-0.0921603 0.003587,3.324e-5 0.0108198,0.007574 0.0238787,0.0248932 0.0103035,0.0136651 0.0201527,0.0254412 0.0218872,0.026169 0.001734,7.2782e-4 0.006281,-0.001112 0.010104,-0.004089 0.003823,-0.002977 0.0169545,-0.0106961 0.0291817,-0.0171546 0.0513308,-0.0271132 0.11010261,-0.0256041 0.15738314,0.004041 0.011268,0.007065 0.0218105,0.0127776 0.0234278,0.0126945 0.001617,-8.312e-5 0.009742,-0.009447 0.0180541,-0.0208094 0.017701,-0.0241949 0.0179612,-0.0230342 -0.009053,-0.0403927 -0.0191535,-0.0123072 -0.0532684,-0.0252731 -0.0785067,-0.0298378 -0.0329736,-0.005964 -0.0772388,-0.002071 -0.10994349,0.009668 -0.008498,0.00305 -0.0121798,0.003345 -0.0145805,0.001166 -0.001767,-0.001603 -0.007826,-0.016906 -0.0134646,-0.0340062 -0.007122,-0.0215985 -0.0113734,-0.0310739 -0.0139231,-0.0310343 -0.002019,3.143e-5 -0.007946,0.002191 -0.0131719,0.0048 z"
             id="path299"
             inkscape:connector-curvature="0" /><path
             style="fill:#084d86;stroke-width:0.00248387"
             d="m 0.46580703,0.58087036 c -0.0218034,0.011881 -0.0326,0.0339065 -0.0305188,0.0622592 0.001528,0.0208093 0.0098,0.0368194 0.0249813,0.0483461 C 0.47094639,0.69958236 0.47255295,0.7 0.49306038,0.7 c 0.0198346,0 0.0224813,-6.2491e-4 0.0330022,-0.007792 0.0169781,-0.0115662 0.0257308,-0.0298878 0.0259267,-0.0542709 1.2613e-4,-0.0157084 -8.5002e-4,-0.0204662 -0.006277,-0.0305927 -0.0122221,-0.0228055 -0.0288381,-0.0333182 -0.0526617,-0.0333182 -0.0111013,0 -0.0177469,0.00167 -0.0272436,0.006844 z"
             id="path341"
             inkscape:connector-curvature="0" /><path
             style="fill:#084d86;stroke-width:0.00248387"
             d="m 0.26536791,0.60419076 c -9.4048e-4,0.001028 -0.00171,0.0162978 -0.00171,0.0339319 0,0.0702598 0.0230804,0.13194164 0.0677269,0.18099836 0.0188638,0.0207272 0.0194878,0.0164191 -0.007383,0.0509666 -0.009674,0.0124379 -0.017589,0.0238443 -0.017589,0.0253477 0,0.003738 0.0377829,0.0302329 0.058343,0.0409129 0.0401297,0.0208454 0.0813127,0.0306302 0.12811779,0.0304399 0.0389687,-1.5844e-4 0.0578194,-0.003076 0.0902613,-0.0139701 0.0693816,-0.0232985 0.12582468,-0.0710879 0.16567696,-0.14027569 0.007512,-0.0130414 0.013658,-0.0259497 0.013658,-0.0286851 0,-0.003693 -0.005134,-0.007604 -0.0199462,-0.0151946 -0.0109704,-0.005622 -0.0215572,-0.0102211 -0.0235262,-0.0102211 -0.001969,0 -0.007032,0.006721 -0.0112502,0.0149351 -0.0351372,0.068418 -0.104582,0.12022609 -0.17851509,0.13317808 -0.0258539,0.004529 -0.0664796,0.001968 -0.0954407,-0.006016 -0.012899,-0.003556 -0.0242458,-0.007869 -0.0252152,-0.009584 -9.6936e-4,-0.001715 0.002904,-0.0165669 0.008607,-0.0330038 0.005703,-0.016437 0.0103696,-0.031972 0.0103696,-0.0345223 0,-0.003041 -0.004492,-0.00704 -0.0130557,-0.0116218 -0.0324885,-0.0173814 -0.063494,-0.0516694 -0.0793369,-0.087736 -0.012665,-0.0288321 -0.0173686,-0.0499269 -0.0183726,-0.0823985 -5.6713e-4,-0.0183424 -0.001809,-0.0277258 -0.003826,-0.028905 -0.001642,-9.6026e-4 -0.0104683,-0.003125 -0.0196132,-0.004811 -0.009145,-0.001686 -0.018797,-0.003643 -0.0214492,-0.00435 -0.002652,-7.0678e-4 -0.005592,-4.4361e-4 -0.006531,5.8445e-4 z"
             id="path76"
             inkscape:connector-curvature="0" /></g></g></g></g></svg>